# xmcd CD database file
#
# Track frame offsets:
#	150
#	18755
#	37982
#	55394
#	75210
#	97320
#	120713
#	142480
#	161885
#	187342
#
# Disc length: 2810 seconds
#
# Revision: 0
# Processed by: cddbd v1.5.1PL2 Copyright (c) Steve Scherf et al.
# Submitted via: CDex 1.51
#
DISCID=8d0af80a
DTITLE=I WiSH - WISH
DYEAR=1900
DGENRE=J ポップ
TTITLE0=キミと僕
TTITLE1=いい日旅立ち
TTITLE2=Best Friend
TTITLE3=夏の幻
TTITLE4=幸せのうた
TTITLE5=約束の日
TTITLE6=15の夏
TTITLE7=SHA-LA-LA
TTITLE8=I wish
TTITLE9=Precious days
EXTD=
EXTT0=
EXTT1=
EXTT2=
EXTT3=
EXTT4=
EXTT5=
EXTT6=
EXTT7=
EXTT8=
EXTT9=
PLAYORDER=
